<?xml version="1.0" encoding="utf-8" ?><svg xmlns="http://www.w3.org/2000/svg" xmlns:xlink="http://www.w3.org/1999/xlink" width="613" height="407" viewBox="0 0 613 407"><path fill="#C2A16F" d="M181.935 215.831C186.388 216.278 194.028 216.077 198.749 216.078L228.212 216.077C255.339 216.073 283.818 216.51 310.84 215.981C311.256 224.477 310.806 235.873 310.778 244.61C310.515 258.444 310.505 272.281 310.745 286.115C310.797 292.764 311.181 301.56 310.794 308.036C302.451 307.92 293.5 308.297 285.355 308.084C285.051 287.117 285.425 266.082 285.277 245.108C285.257 242.223 285.22 239.225 285.289 236.345C282.308 236.46 279.058 236.457 276.069 236.376C269.98 236.212 263.701 236.608 257.635 236.372C258.074 240.099 257.824 244.238 257.858 248.019C257.928 255.818 257.567 263.957 258.011 271.737C257.562 276.35 257.896 283.395 257.9 288.128C257.907 294.771 257.856 301.419 257.863 308.059C250.573 308.004 239.925 307.694 232.891 308.184C232.77 293.643 232.735 279.1 232.788 264.558C232.784 255.459 232.511 245.324 232.857 236.358C223.723 236.259 214.374 236.557 205.292 236.334C205.777 242.811 205.394 255.12 205.388 261.982L205.318 308.028C196.725 308.087 188.132 308.07 179.54 307.976C178.169 306.414 172.251 295.463 170.733 292.824C161.994 277.633 153.726 262.127 144.776 247.048C144.88 249.409 144.883 252.172 144.8 254.541C144.188 271.993 145.825 290.721 144.76 308.047C134.473 308.179 124.141 307.878 113.849 308.024C108.433 308.101 102.951 308.116 97.539 307.895C96.2429 302.996 94.4996 297.423 92.9376 292.595C88.3402 292.281 81.1959 292.521 76.46 292.453C72.1875 292.392 62.9523 292.214 59.0901 292.84C57.633 297.896 55.9393 302.93 54.3832 307.968C53.0692 308.045 49.0069 308.116 47.8373 308.027C44.9081 307.803 29.996 308.667 28.8482 307.356C28.8791 304.059 33.3743 291.809 34.5934 287.987L46.1234 251.752C48.345 244.577 50.6198 237.418 52.9476 230.276C53.8821 227.315 56.4015 218.429 57.8941 216.186C60.0514 215.868 68.3024 216.024 70.9172 216.055C78.5586 216.148 86.9897 215.814 94.559 216.186C97.0947 222.691 100.163 233.61 102.333 240.461L115.842 282.599C117.567 287.956 119.643 296.068 121.627 300.901C121.691 294.032 121.304 286.485 121.3 279.419L121.274 216.007L137.26 216.039C140.461 216.044 144.178 215.898 147.287 216.339C149.916 219.273 153.35 226.497 155.439 230.213L172.15 259.943C174.882 264.839 178.809 272.545 181.862 276.927C181.762 256.561 181.787 236.196 181.935 215.831ZM63.8957 274.785C68.2626 274.674 72.6314 274.656 76.9991 274.731L88.2548 274.707C86.4743 270.234 76.8427 237.723 75.7992 236.913C72.4609 246.436 70.0746 256.469 66.8431 266.047C65.8222 269.072 65.1365 271.802 63.8957 274.785Z"/><path fill="#C2A16F" d="M311.574 255.186C312.191 252.158 312.737 249.019 313.637 246.061C321.385 220.594 349.006 210.547 373.406 215.186C389.036 218.158 403.792 228.613 407.272 244.852C400.385 246.888 392.173 247.212 384.297 249.382C382.2 243.312 379.416 240.137 373.531 237.042C368.153 234.214 358.709 234.06 353.02 236.148C346.782 238.442 341.737 243.159 339.028 249.227C330.11 269.133 343.203 291.016 365.312 289.351C377.084 288.464 385.008 282.345 387.117 270.626C376.026 270.603 364.584 270.367 353.522 270.732C353.442 266.038 353.222 260.649 353.324 256.012C364.382 256.139 375.44 256.175 386.497 256.121C394.526 256.118 403.323 256.297 411.255 256.05C411.123 260.514 411.248 264.347 411.009 268.92C410.827 270.583 410.646 271.823 410.329 273.464C410.133 274.262 409.573 276.324 409.547 277.026C398.243 317.557 339.383 321.095 318.215 287.45C311.594 276.926 310.874 267.18 311.574 255.186Z"/><path fill="#C2A16F" d="M522.763 215.911C525.51 216.206 530.638 216.024 533.476 216.077C541.924 216.233 550.945 215.738 559.327 216.155C560.334 218.681 561.024 221.856 561.938 224.576C565.188 234.538 568.372 244.522 571.488 254.526C577.024 272.22 583.294 290.267 588.408 307.99C579.939 308.021 571.025 307.876 562.6 308.127C561.213 304.722 558.368 296.019 557.751 292.493C547.209 292.272 534.486 292.275 524.003 292.581C522.774 295.999 520.434 305.151 518.767 307.362C516.483 308.729 503.605 307.571 500.183 308.01C499.109 308.148 494.665 307.995 493.659 307.812L493.42 307.181C493.937 303.466 496.864 295.325 498.115 291.508L505.097 269.65L516.483 233.852C517.372 231.055 521.38 217.072 522.763 215.911ZM528.632 274.759L541.388 274.736C545.012 274.719 549.026 274.785 552.619 274.642C551.39 270.899 541.473 237.839 540.653 236.93C538.867 240.326 537.945 245.251 536.687 248.955C533.957 256.985 531.64 266.971 528.632 274.759Z"/><path fill="#C2A16F" d="M471.091 215.896C475.206 216.165 492.774 216.273 496.396 215.777C495.714 227.984 496.166 240.56 496.05 252.726C495.881 270.482 498.777 286.373 483.911 299.525C467.359 314.17 435.61 313.341 420.894 296.61C415.212 290.148 411.996 281.886 411.813 273.283L411.843 271.852C412.045 270.116 411.865 266.718 411.853 264.791L411.859 250.79L411.904 228.946C411.911 224.891 412.044 219.921 411.782 215.989C418.961 215.999 429.805 216.418 436.665 215.987C436.943 220.763 436.715 226.036 436.704 230.876L436.69 258.05C436.692 263.959 436.244 271.609 437.677 277.21C440.845 289.593 457.444 293.244 465.903 284.029C472.904 276.402 471.167 264.234 471.165 254.558L471.091 215.896Z"/><path fill="#C2A16F" d="M341.602 139.525C357.185 138.519 370.656 150.283 371.756 165.857C372.857 181.431 361.173 194.97 345.603 196.165C329.899 197.37 316.215 185.565 315.105 169.857C313.996 154.149 325.885 140.539 341.602 139.525ZM343.465 189.447C355.448 189.391 365.098 179.598 364.977 167.618C364.856 155.637 355.01 146.042 343.029 146.227C331.138 146.41 321.629 156.164 321.749 168.054C321.869 179.944 331.573 189.503 343.465 189.447Z"/><path fill="#30393F" d="M243.852 32.6802C250.066 33.219 260.446 31.9367 266.23 33.1782C267.959 34.8749 276.269 47.0655 278.291 49.9491L302.693 84.4973C304.302 82.195 305.953 79.2346 307.618 76.7393C308.834 78.0915 310.017 79.6472 311.308 81.0908C310.282 84.8458 302.26 96.0239 299.298 98.9649C297.988 99.043 296.303 99.011 294.961 99.0227C293.444 97.5631 290.08 92.4393 288.758 90.6064L273.775 69.5988C270.075 64.7661 266.605 59.4288 263.072 54.4444C260.261 50.4801 257.386 46.6152 254.655 42.601C255.055 46.8195 254.838 52.4136 254.815 56.8076C254.773 64.4437 254.783 72.08 254.843 79.716C254.89 83.583 254.784 88.7745 255.645 92.4733C256.48 96.0605 259.623 97.2069 262.499 98.8886C259.816 99.1546 243.078 99.4179 241.431 98.3497C241.842 97.7351 244.773 96.8962 245.937 95.9856C249.299 93.3576 249.19 89.2823 249.169 85.3667C249.087 70.47 249.327 55.5719 249.085 40.677C248.977 34.0244 243.762 35.7438 242.043 33.4717C242.518 32.9219 243.122 32.872 243.852 32.6802Z"/><path fill="#C2A16F" d="M211.565 185.648C215.894 176.364 219.668 166.257 223.799 156.857C225.146 153.791 228.754 144.234 230.538 142.073C232.703 140.798 237.657 141.252 240.427 141.274C241.04 148.433 240.661 160.79 240.642 168.221C240.623 175.706 241.025 187.03 240.504 194.258C237.991 194.179 235.976 194.165 233.463 194.266C233.225 190.07 233.395 184.271 233.387 179.917C233.316 172.291 233.321 164.665 233.402 157.039C233.324 154.755 233.407 152.27 233.439 149.971C231.742 153.453 229.767 158.603 228.211 162.314L220.219 181.153C219.146 183.734 215.942 192.011 214.581 193.781C212.961 194.701 210.37 194.199 208.487 194C206.724 190.691 204.73 185.504 203.208 181.912L194.74 162.047C193.131 158.214 191.42 153.757 189.431 150.201C189.573 152.157 189.698 154.4 189.67 156.354C189.489 168.922 189.971 181.644 189.709 194.197L182.804 194.29C182.348 189.782 182.663 142.39 183.146 141.308C185.08 141.267 189.584 141.096 191.208 141.469C193.521 141.999 196.31 150.177 197.285 152.491L206.088 173.274C207.276 176.115 209.937 182.928 211.372 185.332L211.565 185.648Z"/><path fill="#30393F" d="M339.543 32.7351C342.353 32.6603 358.698 32.4861 360.447 33.1486L360.617 33.7277C358.679 35.7883 354.372 34.3055 354.079 41.115C353.674 50.5325 353.8 59.9985 353.86 69.4385C353.909 77.2276 353.167 85.8116 355.272 93.3025C356.262 96.5656 359.095 96.5149 361.258 98.219L360.944 98.5434C358.109 99.345 336.467 99.0089 332.142 98.7475C335.189 97.0745 336.836 96.6633 338.444 93.6994C339.706 90.3927 339.223 79.2826 339.209 75.3019L339.216 56.1903C339.206 51.3346 339.066 46.3033 339.489 41.478C334.01 47.9767 330.034 56.5429 324.151 62.6643C322.976 63.887 320.878 59.1818 320.532 58.4743C320.746 58.0269 320.977 57.588 321.225 57.1585C324.598 51.2987 329.18 45.687 332.792 39.9144C334.457 37.2529 336.456 33.5783 339.543 32.7351Z"/><path fill="#C2A16F" d="M410.461 141.536C413.285 141.265 414.773 141.342 417.609 141.489C417.277 147.131 417.748 192.849 417.184 193.869C416.416 194.427 415.636 194.233 414.628 194.179C412.818 194.194 410.886 194.079 409.067 194.005C407.028 191.385 402.636 183.841 400.749 180.794C394.474 170.449 388.127 160.148 381.71 149.892C381.726 150.059 381.741 150.227 381.753 150.396C381.866 151.863 381.922 159.36 381.823 160.47C381.489 164.176 382.59 192.54 381.464 193.853C379.779 194.394 377.231 194.266 375.324 194.367C375.14 183.312 375.248 172.101 375.248 161.031C375.248 156.923 374.811 145.357 375.463 142.085C376.196 141.401 376.568 141.519 377.672 141.303C380.167 141.412 383.147 141.2 384.577 143.629C392.878 157.725 402.608 171.803 410.568 186.049C410.197 181.314 410.361 174.137 410.34 169.249C410.231 160.011 410.271 150.773 410.461 141.536Z"/><path fill="#C2A16F" d="M295.154 32.3603C297.56 32.2537 298.346 32.8278 299.793 34.6607C302.107 37.5925 304.107 40.7425 306.259 43.7949L320.378 63.8353C324.714 69.9812 333.535 81.2484 337.035 87.2624C332.814 87.2886 322.263 87.837 318.808 86.9174C315.289 83.4291 313.782 79.8877 310.868 76.1516C303.753 67.0308 297.605 56.4016 290.368 47.5094C289.184 49.4287 287.631 52.4093 285.851 53.6095C283.224 54.0292 281.853 49.9164 282.982 48.2795C285.442 44.7133 291.247 33.7291 295.154 32.3603Z"/><path fill="#C2A16F" d="M275.902 140.176C289.197 139.689 297.272 143.561 299.558 157.354C297.095 157.635 295.6 157.702 293.12 157.71C292.208 154.62 291.257 150.693 288.607 148.629C283.201 144.417 271.255 144.438 266.82 150.09C265.369 151.946 264.726 154.308 265.037 156.643C266.399 167.345 289.317 163.197 296.406 170.135C303.822 177.392 300.981 188.408 292.227 192.982C288.292 195.039 283.737 195.387 279.373 195.768C266.617 195.317 258.193 190.704 256.999 177.103C259.187 176.995 261.567 177.023 263.771 177.006C264.679 187.347 271.793 190.417 281.277 190.147C293.402 189.801 299.543 175.774 285.8 171.981C276.588 169.485 258.865 170.549 257.871 157.52C256.944 145.364 265.689 141.257 275.902 140.176Z"/><path fill="#F0E8DA" fill-opacity="0.011764706" d="M257.635 236.372C263.701 236.608 269.98 236.212 276.069 236.376C279.058 236.457 282.308 236.46 285.289 236.345C285.22 239.225 285.257 242.223 285.277 245.108C285.425 266.082 285.051 287.117 285.355 308.084C293.5 308.297 302.451 307.92 310.794 308.036C311.181 301.56 310.797 292.764 310.745 286.115C310.505 272.281 310.515 258.444 310.778 244.61C311.592 246.993 310.698 254.197 311.373 255.158L311.574 255.186C310.874 267.18 311.594 276.926 318.215 287.45C339.383 321.095 398.243 317.557 409.547 277.026L410.114 277.431C410.331 281.044 408.376 281.291 408.567 285.648C405.738 288.267 405.701 289.665 403.644 292.453C400.411 296.835 395.066 301.95 390.308 304.758C384.497 308.186 376.509 310.148 369.908 311.436C367.998 311.752 361.498 311.043 359.089 311.189C357.252 311.3 354.515 311.865 352.982 311.449C350.992 309.125 350.658 310.807 348.559 310.279C335.77 307.063 324.519 300.092 317.227 288.913C315.453 286.193 314.105 282.437 313.036 279.29C311.346 281.018 313.879 304.895 311.527 308.913C311.081 309.675 306.653 309.607 305.837 309.479C301.51 308.799 287.034 310.591 284.002 308.57C282.149 305.425 283.327 245.066 283.453 237.317L259.507 237.317L259.529 255.478C259.53 259 259.628 262.894 259.369 266.384C259.269 267.717 258.728 269.908 258.512 271.508L258.011 271.737C257.567 263.957 257.928 255.818 257.858 248.019C257.824 244.238 258.074 240.099 257.635 236.372ZM284.797 287.162C284.803 282.396 285.476 252.894 284.351 250.918C284.344 255.654 283.675 285.212 284.797 287.162ZM312.326 277.437C312.308 276.861 311.465 274.509 311.144 273.96C311.116 275.1 310.953 276.103 311.479 277.067C311.961 277.369 311.816 277.372 312.326 277.437Z"/><path fill="#C2A16F" d="M246.097 141.254C248.47 141.255 250.842 141.288 253.214 141.353C253.473 152.256 252.916 163.927 253.157 174.958C253.224 178.014 253.431 192.323 252.978 194.234L246.065 194.256C245.552 183.18 246.306 170.502 245.987 159.256C245.925 157.074 245.843 142.536 246.097 141.254Z"/><path fill="#C2A16F" d="M305.099 141.295C307.327 141.32 309.555 141.313 311.782 141.276C312.298 149.849 311.621 161.332 311.687 170.286C311.735 176.828 312.311 187.988 311.829 194.039C310.988 194.272 306.027 194.267 304.691 194.313C304.563 192.635 304.619 190.941 304.626 189.258C304.689 174.106 304.546 158.948 304.66 143.797C304.667 142.891 304.792 142.142 305.099 141.295Z"/><path fill="#30393F" d="M287.895 351.25C294.904 351.442 305.354 350.162 305.287 360.438C305.268 363.339 304.523 364.704 302.474 366.689C298.527 370.046 293.231 368.873 287.916 369.284C287.983 363.273 287.976 357.261 287.895 351.25ZM293.015 365.375C295.504 365.172 296.217 365.25 298.399 364.016C300.561 362.246 301.082 359.331 299.072 357.216C297.115 355.157 295.701 355.226 293.074 355.028C292.415 356.348 292.919 363.557 293.015 365.375Z"/><path fill="#30393F" d="M228.396 351.3C231.852 351.251 237.76 350.841 240.838 351.956C243.378 352.876 244.117 354.618 245.091 356.879L244.025 360.31C242.665 361.638 242.018 362.008 240.379 363.021C241.382 364.475 244.512 367.59 244.325 369.025C243.431 369.614 243.114 369.391 241.866 369.378C236.87 368.777 236.996 364.352 234.279 363.565C233.188 364.878 233.598 367.686 233.678 369.483C231.964 369.22 230.28 369.195 228.55 369.132C228.597 363.758 228.8 356.55 228.396 351.3ZM237.878 359.492C238.845 358.855 239.064 358.757 239.606 357.75C239.774 355.081 236.364 355.103 234.375 355.008L233.691 355.43C233.443 356.629 233.153 357.525 233.509 358.708C234.761 360.538 235.893 360.016 237.878 359.492Z"/><path fill="#30393F" d="M338.969 351.275L339.163 351.207L339.49 351.463C339.737 357.325 339.316 363.007 339.701 369.13C337.383 369.214 336.248 369.223 333.9 368.998C331.992 365.33 330.007 361.702 327.948 358.117C327.678 361.575 327.772 365.705 327.766 369.222C326.481 369.101 325.127 369.191 323.832 369.236L323.444 369.178C322.737 368.09 323.067 353.943 322.956 351.285C328.027 351.226 328.401 350.601 330.92 355.494C332.195 357.971 333.702 360.718 335.031 363.2C334.903 359.162 334.997 355.284 334.784 351.188C336.178 351.227 337.573 351.256 338.969 351.275Z"/><path fill="#30393F" d="M374.362 351.286L381.666 351.26C382.882 353.654 386.673 366.397 387.393 369.302C384.162 368.977 382.331 370.188 381.024 366.791C379.028 365.407 375.059 366.449 374.088 368.6C373.786 369.268 369.6 369.152 368.596 369.169C369.569 367.519 372.859 354.977 374.362 351.286ZM379.281 362.603L379.916 362.436C380.078 361.227 378.622 357.035 377.783 356.323C377.272 358.743 375.913 361.072 376.743 362.569C377.63 362.91 378.318 362.72 379.281 362.603Z"/><path fill="#30393F" fill-opacity="0.023529412" d="M377.783 356.323C378.622 357.035 380.078 361.227 379.916 362.436L379.281 362.603C378.318 362.72 377.63 362.91 376.743 362.569C375.913 361.072 377.272 358.743 377.783 356.323Z"/><path fill="#30393F" d="M267.838 351.109C271.365 350.868 275.494 351.34 277.494 355.188C277.796 355.768 277.362 356.402 277.074 356.899C276.069 357.6 274.899 357.497 273.617 357.566C272.003 355.055 268.562 353.281 267.079 356.553C268.315 358.799 283.403 358.772 277.173 366.945C275.616 368.988 273.648 369.163 271.258 369.441C265.799 370.168 262.961 368.346 261.619 363.114C263.513 363.232 264.31 363.21 266.206 363.033L266.328 363.203L266.771 363.81C268.83 366.66 272.866 366.564 272.755 363.568C271.654 362.177 266.026 361.647 262.976 360.341C262.585 359.443 262.119 358.048 261.765 357.093C262.01 355.595 262.402 354.511 262.874 353.075C264.654 351.955 265.774 351.414 267.838 351.109Z"/><path fill="#30393F" d="M348.91 351.104C355.852 350.676 358.04 351.959 360.775 358.21C359.094 358.231 357.814 358.364 356.138 358.547L356.036 358.409C355.603 357.833 355.109 357.115 354.624 356.6C353.761 355.674 352.549 355.153 351.283 355.165C342.564 355.251 347.701 371.386 355.423 362.772C356.871 361.633 358.878 362.274 360.63 362.539C359.613 365.646 358.59 367.701 355.338 368.858C341.754 373.689 335.262 354.9 348.91 351.104Z"/><path fill="#30393F" d="M246.406 351.336C251.051 351.342 255.695 351.322 260.34 351.276C260.331 352.587 260.406 353.962 260.457 355.278C257.734 355.322 255.011 355.372 252.288 355.38C252.126 355.542 251.964 355.704 251.803 355.867C251.579 356.92 251.567 357.051 251.87 358.081C254.54 358.897 257.949 357.144 259.944 359.307C260.113 360.52 260.194 360.076 259.77 361.098C258.273 362.334 254.158 361.825 251.774 361.866C251.738 362.878 251.568 363.705 252.081 364.521C253.933 365.855 258.099 365.214 260.644 365.134C260.702 366.577 260.761 367.17 260.505 368.599C259.542 369.447 248.553 369.28 246.246 369.381C246.657 363.634 246.23 357.204 246.406 351.336Z"/><path fill="#30393F" d="M307.039 351.216C310.435 351.537 317.501 351.316 321.18 351.277C321.005 352.799 321.057 353.858 321.103 355.393C318.909 355.207 312.078 354.455 311.471 357.012C312.808 359.938 318.594 356.603 320.459 359.295C320.531 360.174 320.662 360.714 320.325 361.509C319.341 361.968 314.171 361.789 312.724 361.781L312.128 361.961C311.671 363.15 311.414 363.479 312.089 364.594C313.965 365.654 319.054 365.221 321.466 365.155C321.337 366.474 321.411 367.737 321.454 369.06C316.705 369.071 311.786 369.014 307.053 369.197C307.111 363.378 307.289 356.979 307.039 351.216Z"/><path fill="#30393F" d="M393.11 351.242L393.663 351.428C394.188 352.814 393.956 362.656 393.941 364.819C396.155 364.966 400.045 364.226 401.512 365.466C402.121 366.511 401.967 367.76 401.975 369.028L398.829 369.034C395.422 369.043 392.016 369.102 388.611 369.211C389.068 366.499 388.817 354.77 388.809 351.207C390.238 351.273 391.679 351.249 393.11 351.242Z"/><path fill="#C2A16F" d="M269.234 68.3636L269.974 68.6194C272.568 71.575 272.713 74.1212 270.217 77.4172C267.391 81.1485 264.825 86.4205 259.962 87.3835C258.726 87.5273 258.059 87.6704 256.818 87.4032L256.6 86.9924C257.65 84.3342 267.189 71.183 269.234 68.3636Z"/><path fill="#30393F" d="M280.414 351.361C282.064 351.27 283.844 351.258 285.506 351.215C285.369 354.622 286.126 366.599 285.288 369.215L280.518 369.129C280.218 366.081 280.248 354.498 280.414 351.361Z"/><path fill="#30393F" d="M366.485 351.221L366.779 351.209C367.796 352.375 367.282 366.711 367.305 369.297C366.003 369.127 364.616 369.115 363.296 369.071C362.775 369.111 362.79 369.053 362.337 368.766C361.945 367.31 362.113 353.468 362.115 351.264C363.487 351.331 365.091 351.256 366.485 351.221Z"/><path fill="#C2A16F" d="M349.321 129.089C350.81 129.231 352.134 128.911 353.549 129.357L353.563 129.786C352.316 131.358 347.708 135.685 345.924 136.535L340.287 136.857C343.314 134.184 345.481 129.584 349.321 129.089Z"/><path fill="#C2A16F" fill-opacity="0.7647059" d="M411.782 215.989C412.044 219.921 411.911 224.891 411.904 228.946L411.859 250.79L411.853 264.791C411.865 266.718 412.045 270.116 411.843 271.852C411.649 270.58 411.811 269.976 411.413 268.628L411.009 268.92C411.248 264.347 411.123 260.514 411.255 256.05C412.371 254.132 410.713 221.76 411.782 215.989Z"/><path fill="#C2A16F" fill-opacity="0.043137256" d="M411.009 268.92L411.413 268.628C411.811 269.976 411.649 270.58 411.843 271.852L411.813 273.283L411.334 273.455L410.829 274.839L410.462 274.249L410.87 274.378L410.428 274.07L410.329 273.464C410.646 271.823 410.827 270.583 411.009 268.92Z"/></svg>