<svg width="450" height="68" viewBox="0 0 450 68" fill="none" xmlns="http://www.w3.org/2000/svg">
<path d="M207.192 10.436C222.775 9.42997 236.246 21.194 237.346 36.768C238.447 52.342 226.763 65.881 211.193 67.076C195.489 68.281 181.805 56.476 180.695 40.768C179.586 25.06 191.475 11.45 207.192 10.436ZM209.055 60.358C221.038 60.302 230.688 50.509 230.567 38.529C230.446 26.548 220.6 16.953 208.619 17.138C196.728 17.321 187.219 27.075 187.339 38.965C187.459 50.855 197.163 60.414 209.055 60.358Z" fill="#C2A16F"/>
<path d="M1.94021 10.8291C6.92016 11.2666 15.2388 10.2255 19.8741 11.2335C21.2598 12.6111 27.9194 22.5088 29.5399 24.8501L49.0959 52.9004C50.3853 51.0311 51.7085 48.6275 53.0428 46.6015C54.0173 47.6994 54.9654 48.9625 56 50.1346C55.1778 53.1833 48.7489 62.259 46.3751 64.6469C45.3252 64.7103 43.9749 64.6843 42.8994 64.6938C41.6836 63.5087 38.9877 59.3486 37.9282 57.8604L25.9207 40.804C22.9555 36.8803 20.1746 32.5468 17.3433 28.4999C15.0905 25.2812 12.7865 22.1432 10.5978 18.884C10.9184 22.3091 10.7445 26.851 10.726 30.4186C10.6924 36.6185 10.7004 42.8185 10.7485 49.0183C10.7862 52.158 10.7012 56.3731 11.3912 59.3762C12.0604 62.2887 14.5792 63.2195 16.8841 64.5849C14.7339 64.8009 1.31992 65.0147 0 64.1474C0.329379 63.6484 2.6783 62.9672 3.61114 62.2279C6.30548 60.0942 6.21813 56.7854 6.2013 53.6062C6.13559 41.5113 6.32792 29.4153 6.13398 17.3219C6.04743 11.9205 1.86808 13.3165 0.490461 11.4718C0.87113 11.0254 1.35519 10.9849 1.94021 10.8291Z" fill="#30393F"/>
<path d="M79.4045 10.84C81.6814 10.7791 94.9256 10.6375 96.3428 11.1763L96.4806 11.6474C94.9103 13.3235 91.4203 12.1174 91.1829 17.6562C90.8547 25.3164 90.9568 33.016 91.0054 40.6945C91.0451 47.0301 90.4439 54.0124 92.1496 60.1054C92.9518 62.7596 95.2473 62.7184 97 64.1045L96.7456 64.3684C94.4484 65.0204 76.912 64.747 73.4075 64.5344C75.8765 63.1736 77.211 62.8391 78.514 60.4283C79.5366 57.7386 79.1452 48.7017 79.1339 45.4638L79.1395 29.9184C79.1314 25.9688 79.018 21.8763 79.3607 17.9515C74.9211 23.2375 71.6994 30.2052 66.9324 35.1844C65.9803 36.1789 64.2804 32.3517 64 31.7762C64.1734 31.4123 64.3606 31.0553 64.5615 30.706C67.2946 25.9396 71.0074 21.375 73.9342 16.6796C75.2833 14.5148 76.9031 11.5258 79.4045 10.84Z" fill="#30393F"/>
<path d="M276.051 12.4474C278.875 12.1764 280.363 12.2534 283.199 12.4004C282.867 18.0424 283.338 63.7604 282.774 64.7804C282.006 65.3384 281.226 65.1444 280.218 65.0904C278.408 65.1054 276.476 64.9904 274.657 64.9164C272.618 62.2964 268.226 54.7524 266.339 51.7054C260.064 41.3604 253.717 31.0594 247.3 20.8034C247.316 20.9704 247.331 21.1384 247.343 21.3074C247.456 22.7744 247.512 30.2714 247.413 31.3814C247.079 35.0874 248.18 63.4514 247.054 64.7644C245.369 65.3054 242.821 65.1774 240.914 65.2784C240.73 54.2234 240.838 43.0124 240.838 31.9424C240.838 27.8344 240.401 16.2684 241.053 12.9964C241.786 12.3124 242.158 12.4304 243.262 12.2144C245.757 12.3234 248.737 12.1114 250.167 14.5404C258.468 28.6364 268.198 42.7144 276.158 56.9604C275.787 52.2254 275.951 45.0484 275.93 40.1604C275.821 30.9224 275.861 21.6844 276.051 12.4474Z" fill="#C2A16F"/>
<path d="M43.1574 10.7866C45.1016 10.7015 45.7368 11.16 46.906 12.6236C48.7759 14.9648 50.392 17.4802 52.131 19.9177L63.5401 35.9208C67.0438 40.8285 74.1718 49.8259 77 54.6283C73.5892 54.6492 65.0633 55.0872 62.2714 54.3528C59.4278 51.5673 58.2101 48.7393 55.8554 45.7559C50.106 38.4725 45.138 29.9847 39.29 22.8838C38.3333 24.4165 37.0784 26.7966 35.64 27.755C33.5172 28.0902 32.4094 24.8059 33.3217 23.4988C35.3095 20.651 40.0003 11.8797 43.1574 10.7866Z" fill="#C2A16F"/>
<path d="M141.492 11.0872C154.787 10.6002 162.862 14.4723 165.148 28.2653C162.685 28.5463 161.19 28.6133 158.71 28.6213C157.798 25.5313 156.847 21.6043 154.197 19.5403C148.791 15.3283 136.845 15.3493 132.41 21.0013C130.959 22.8573 130.316 25.2193 130.627 27.5543C131.989 38.2563 154.907 34.1082 161.996 41.0462C169.412 48.3032 166.571 59.3192 157.817 63.8932C153.882 65.9502 149.327 66.2983 144.963 66.6793C132.207 66.2283 123.783 61.6153 122.589 48.0143C124.777 47.9063 127.157 47.9343 129.361 47.9173C130.269 58.2583 137.383 61.3283 146.867 61.0583C158.992 60.7123 165.133 46.6853 151.39 42.8923C142.178 40.3963 124.455 41.4603 123.461 28.4313C122.534 16.2753 131.279 12.1682 141.492 11.0872Z" fill="#C2A16F"/>
<path d="M111.687 12.165C114.06 12.166 116.432 12.199 118.804 12.264C119.063 23.167 118.506 34.838 118.747 45.869C118.814 48.925 119.021 63.234 118.568 65.145L111.655 65.167C111.142 54.091 111.896 41.413 111.577 30.167C111.515 27.985 111.433 13.447 111.687 12.165Z" fill="#C2A16F"/>
<path d="M170.689 12.206C172.917 12.231 175.145 12.224 177.372 12.187C177.888 20.76 177.211 32.243 177.277 41.197C177.325 47.739 177.901 58.899 177.419 64.95C176.578 65.183 171.617 65.178 170.281 65.224C170.153 63.546 170.209 61.852 170.216 60.169C170.279 45.017 170.136 29.859 170.25 14.708C170.257 13.802 170.382 13.053 170.689 12.206Z" fill="#C2A16F"/>
<path d="M22.6602 39.7769L23.2846 39.9768C25.4733 42.2871 25.5957 44.2774 23.4896 46.8538C21.1051 49.7705 18.94 53.8915 14.8368 54.6442C13.7939 54.7566 13.2311 54.8685 12.1839 54.6596L12 54.3385C12.886 52.2607 20.9347 41.9807 22.6602 39.7769Z" fill="#C2A16F"/>
<path d="M214.911 0C216.4 0.142 217.724 -0.17801 219.139 0.26799L219.153 0.696991C217.906 2.26899 213.298 6.596 211.514 7.446L205.877 7.76799C208.904 5.09499 211.071 0.495 214.911 0Z" fill="#C2A16F"/>
<path d="M428.698 12.1357C435.642 12.1357 440.837 13.6469 444.284 16.6691C447.756 19.6914 449.492 23.9875 449.492 29.5574C449.492 32.0551 449.129 34.453 448.405 36.7509C447.706 39.0488 446.544 41.0969 444.921 42.8953C443.322 44.6936 441.187 46.1174 438.514 47.1664C435.866 48.2154 432.594 48.74 428.698 48.74H424.539V66.911H409.74V12.1357H428.698ZM428.361 24.0874H424.539V36.6759H427.462C428.735 36.6759 429.922 36.4636 431.021 36.039C432.12 35.5894 432.994 34.8776 433.644 33.9035C434.318 32.9044 434.655 31.5806 434.655 29.9321C434.655 28.2086 434.143 26.8099 433.119 25.7359C432.095 24.6369 430.509 24.0874 428.361 24.0874Z" fill="#C2A16F"/>
<path d="M380.217 12.1357C387.161 12.1357 392.356 13.6469 395.803 16.6691C399.275 19.6914 401.011 23.9875 401.011 29.5574C401.011 32.0551 400.648 34.453 399.924 36.7509C399.225 39.0488 398.063 41.0969 396.44 42.8953C394.841 44.6936 392.706 46.1174 390.033 47.1664C387.386 48.2154 384.114 48.74 380.217 48.74H376.058V66.911H361.259V12.1357H380.217ZM379.88 24.0874H376.058V36.6759H378.981C380.255 36.6759 381.441 36.4636 382.54 36.039C383.639 35.5894 384.513 34.8776 385.163 33.9035C385.837 32.9044 386.174 31.5806 386.174 29.9321C386.174 28.2086 385.662 26.8099 384.638 25.7359C383.614 24.6369 382.028 24.0874 379.88 24.0874Z" fill="#C2A16F"/>
<path d="M339.117 66.9111L336.419 56.6455H318.623L315.851 66.9111H299.59L317.462 11.9111H337.206L355.302 66.9111H339.117ZM333.347 44.5065L330.987 35.5147C330.737 34.5406 330.375 33.1543 329.9 31.356C329.426 29.5326 328.951 27.6593 328.477 25.7361C328.027 23.7878 327.677 22.1893 327.428 20.9404C327.203 22.1893 326.878 23.7379 326.453 25.5862C326.054 27.4095 325.629 29.2204 325.18 31.0188C324.755 32.8171 324.38 34.3158 324.056 35.5147L321.695 44.5065H333.347Z" fill="#C2A16F"/>
</svg>
